<svg width="800" height="800" viewBox="0 0 800 800" fill="none" xmlns="http://www.w3.org/2000/svg">
<path d="M756.45 244.425H758.325C760.5 244.425 761.45 244.125 761.45 242.25C761.45 240.7 760.5 240.075 758.325 240.075H756.15V244.45L756.45 244.425ZM755.825 253.8H752.7V237.55L758.95 237.25C759.2 237.225 759.525 237.225 759.825 237.225C761.55 237.225 763.175 237.575 764.65 238.225L764.575 238.2C765.7 238.825 766.45 240 766.45 241.35C766.45 241.45 766.45 241.55 766.45 241.65V241.625C766.45 243.5 765.2 244.75 763.025 245.05C764.575 245.675 765.2 246.925 765.825 249.1L766.775 253.15H763.025C762.4 252.525 762.4 250.975 761.775 249.1C761.15 247.525 760.525 246.925 758.35 246.925H756.8L756.175 253.8H755.825ZM746.475 245.675C746.475 245.775 746.475 245.9 746.475 246.025C746.475 252.725 751.925 258.175 758.625 258.175C758.75 258.175 758.875 258.175 759 258.175H758.975C765.6 257.825 770.85 252.375 770.85 245.675C770.85 238.975 765.6 233.525 759 233.175H758.975C758.65 233.15 758.3 233.125 757.925 233.125C751.575 233.125 746.425 238.275 746.425 244.625C746.425 245 746.45 245.35 746.475 245.725V245.675ZM774.9 245.675C774.9 245.775 774.9 245.925 774.9 246.05C774.9 254.65 767.925 261.65 759.3 261.65C758.95 261.65 758.625 261.65 758.275 261.625H758.325C758.125 261.625 757.925 261.65 757.7 261.65C749 261.65 741.95 254.675 741.775 246.025C741.975 237.025 749.3 229.775 758.325 229.75C758.55 229.725 758.825 229.725 759.125 229.725C767.825 229.725 774.9 236.775 774.9 245.5C774.9 245.575 774.9 245.625 774.9 245.7V245.675ZM598.075 418.425H635.25V382.175H597.75V345H562.45V382.5H524.95V418.425H562.45V455.3H598.375V418.75L598.075 418.425ZM156.625 418.425H267.225V382.175H156.95V418.425H156.625ZM431.25 400C457.175 344.45 505.6 303.1 564.45 287.225L565.9 286.9C570.75 286.075 576.35 285.6 582.05 285.6C583.175 285.6 584.3 285.625 585.425 285.65H585.25C586.275 285.625 587.5 285.6 588.725 285.6C652.525 285.6 704.425 336.45 706.15 399.825V399.975C704.075 463.575 652.025 514.35 588.125 514.35C587.225 514.35 586.325 514.35 585.425 514.325H585.55C579.3 514.325 572.425 513.7 566.175 513.075C505.925 496.775 457.55 455.45 432.05 401.25L431.525 400H431.25ZM227.55 512.475C222.625 513.3 216.925 513.775 211.125 513.775C209.975 513.775 208.825 513.75 207.7 513.725H207.875C207.125 513.75 206.225 513.75 205.325 513.75C141.475 513.75 89.5 462.95 87.6 399.55V399.375C89.675 335.775 141.725 285 205.625 285C206.525 285 207.425 285 208.325 285.025H208.2C214.45 285.025 221.325 285.65 227.875 286.275C288.3 302.25 336.775 343.675 362 398.1L362.525 399.35C336.9 455.1 288.35 496.575 229.3 512.125L227.875 512.45L227.55 512.475ZM769.275 400C767.35 301.75 687.275 222.825 588.725 222.825C587.625 222.825 586.5 222.825 585.4 222.85H585.575C576.525 222.85 566.825 223.475 557.45 224.4C489.175 238.025 432.35 278.85 397.775 334.9L397.175 335.95C361.6 279.125 304.825 238.4 238.175 224.7L236.6 224.425C227.225 223.5 217.85 222.875 208.475 222.875C207.625 222.85 206.625 222.85 205.625 222.85C107.1 222.85 27 301.75 25.075 399.825V400C27 498.25 107.1 577.15 205.625 577.15C206.625 577.15 207.625 577.15 208.625 577.125H208.475C218.625 577.1 228.6 576.425 238.375 575.125L237.2 575.25C305.55 561.775 362.475 521.025 397.175 465.075L397.775 464.05C433.275 520.925 490.1 561.675 556.775 575.3L558.35 575.575C568.025 576.5 577.1 577.125 586.775 577.125C587.35 577.125 588 577.125 588.675 577.125C687.2 577.125 767.3 498.225 769.2 400.15V399.975L769.275 400Z" fill="white"/>
</svg>
