<svg width="375" height="375" viewBox="0 0 375 375" fill="none" xmlns="http://www.w3.org/2000/svg">
<rect x="5" y="5" width="365" height="365" rx="182.5" fill="black"/>
<rect x="5" y="5" width="365" height="365" rx="182.5" stroke="white" stroke-width="10"/>
<g clip-path="url(#clip0_2_2)">
<path d="M148.594 95.0346C149.991 92.9687 151.936 92.0269 154.427 92.2092C156.918 92.3915 159.227 93.4548 161.354 95.3992C163.541 97.4043 165.85 100.23 168.28 103.875C170.711 107.582 172.838 114.964 174.66 126.023C176.483 137.142 176.787 147.776 175.572 157.923C174.296 168.07 173.263 174.511 172.473 177.245C171.744 179.979 172.929 182.896 176.028 185.995C179.066 189.033 180.494 191.858 180.311 194.471C180.129 197.084 178.914 199.241 176.666 200.942C174.417 202.583 172.23 203.099 170.103 202.492C167.977 201.945 165.516 205.226 162.721 212.335C159.926 219.444 156.523 226.401 152.513 233.207C148.442 240.073 144.766 245.815 141.485 250.432C138.143 255.05 133.586 259.881 127.813 264.924C122.102 269.967 117.636 272.854 114.415 273.583C111.195 274.251 108.4 274.221 106.03 273.492C103.66 272.702 101.473 270.696 99.4679 267.476C97.4628 264.256 96.3691 258.271 96.1868 249.521C96.0045 240.711 98.5869 232.052 103.934 223.545C109.22 214.978 118.82 207.474 132.735 201.033C146.589 194.532 151.298 192.223 146.862 194.106C142.426 195.929 125.717 198.299 96.7336 201.216C67.8111 204.071 69.1478 203.373 100.744 199.119C132.401 194.866 149.809 191.129 152.969 187.909C156.067 184.688 158.316 179.433 159.713 172.141C161.05 164.85 161.779 158.075 161.9 151.816C162.022 145.497 161.627 139.178 160.716 132.859C159.743 126.479 156.918 120.068 152.239 113.628C147.561 107.126 145.434 102.873 145.859 100.868C146.346 98.8626 147.257 96.9182 148.594 95.0346ZM136.654 217.074C134.163 218.168 130.487 221.085 125.626 225.824C120.765 230.563 117.423 234.999 115.6 239.131C113.838 243.202 113.382 246.453 114.233 248.883C115.023 251.314 118.608 249.278 124.988 242.777C131.307 236.214 135.469 230.837 137.474 226.644C139.419 222.452 140.421 219.535 140.482 217.895C140.543 216.315 139.267 216.041 136.654 217.074ZM242.926 92.8472C244.081 91.9358 246.086 91.6927 248.942 92.118C251.797 92.6041 254.653 94.032 257.509 96.4017C260.365 98.7714 260 102.296 256.415 106.974C252.891 111.714 248.881 118.033 244.384 125.932C239.827 133.892 234.511 144.798 228.434 158.652C222.298 172.445 219.715 181.316 220.687 185.266C221.599 189.154 223.574 192.436 226.612 195.109C229.65 197.783 234.663 199.028 241.65 198.846C248.638 198.664 261.762 198.086 281.024 197.114C300.224 196.081 301.652 196.324 285.307 197.843C268.902 199.302 256.628 200.638 248.486 201.854C240.405 203.13 237.609 207.201 240.101 214.067C242.592 220.993 244.141 226.249 244.749 229.834C245.417 233.48 245.448 237.338 244.84 241.409C244.293 245.48 242.47 249.794 239.372 254.352C236.273 258.848 232.961 262.737 229.437 266.018C225.974 269.238 222.419 271.365 218.773 272.398C215.188 273.37 211.117 273.309 206.56 272.216C202.064 271.061 198.236 268.813 195.076 265.471C191.856 262.068 189.517 257.086 188.058 250.524C186.661 243.901 186.114 237.338 186.418 230.837C186.722 224.275 189.577 213.884 194.985 199.666C200.332 185.448 204.98 174.055 208.93 165.488C212.819 156.92 218.227 144.586 225.153 128.484C232.019 112.321 236.03 103.055 237.184 100.685C238.399 98.3157 240.313 95.703 242.926 92.8472ZM218.682 215.525C215.401 211.272 212.363 211.15 209.568 215.16C206.773 219.171 205.102 223.211 204.555 227.282C204.008 231.293 203.856 234.999 204.099 238.402C204.342 241.804 205.345 245.207 207.107 248.61C208.93 252.073 211.421 253.744 214.581 253.622C217.801 253.501 220.535 252.164 222.784 249.612C225.032 247.06 226.612 243.961 227.523 240.316C228.434 236.731 228.009 232.72 226.247 228.285C224.546 223.91 222.024 219.657 218.682 215.525ZM274.461 262.372C276.831 259.942 280.841 258.848 286.492 259.091C292.204 259.334 295.789 260.185 297.247 261.643C298.645 263.041 299.586 265.046 300.072 267.658C300.559 270.271 299.374 273.127 296.518 276.226C293.662 279.325 290.442 281.208 286.857 281.877C283.333 282.606 279.778 281.421 276.193 278.322C272.669 275.284 270.907 272.459 270.907 269.846C270.907 267.233 272.092 264.742 274.461 262.372Z" fill="white"/>
</g>
<defs>
<clipPath id="clip0_2_2">
<rect width="224.178" height="200" fill="white" transform="translate(76 87)"/>
</clipPath>
</defs>
</svg>
