<svg width="800" height="800" viewBox="0 0 800 800" fill="none" xmlns="http://www.w3.org/2000/svg">
<path d="M400 750C593.3 750 750 593.3 750 400C750 206.7 593.3 50 400 50C206.7 50 50 206.7 50 400C50 593.3 206.7 750 400 750Z" fill="white"/>
<path d="M360.98 250H402.98L391.11 313.105H428.85C449.547 313.548 464.965 318.172 475.112 326.982C485.46 335.79 488.505 352.535 484.245 377.203L463.852 487.222H421.243L440.72 382.157C442.747 371.142 442.14 363.325 438.895 358.7C435.65 354.075 428.65 351.763 417.895 351.763L384.11 351.432L359.153 487.222H317.152L360.98 250Z" fill="#0A0A0A"/>
<path fill-rule="evenodd" clip-rule="evenodd" d="M168.523 313.107H250.09C274.03 313.325 291.38 320.817 302.135 335.572C312.89 350.33 316.44 370.482 312.788 396.035C311.37 407.712 308.222 419.163 303.352 430.398C298.685 441.63 292.195 451.76 283.875 460.792C273.727 472.245 262.873 479.513 251.308 482.6C239.742 485.685 227.769 487.225 215.394 487.225H178.871L167.306 550H125L168.523 313.107ZM185.871 449.89L204.072 351.102H210.22C212.454 351.102 214.785 350.99 217.22 350.772C233.454 350.552 246.943 352.205 257.7 355.727C268.655 359.25 272.307 372.578 268.655 395.705C264.195 423.24 255.465 439.317 242.481 443.942C229.497 448.35 213.263 450.44 193.784 450.22H189.523C188.306 450.22 187.089 450.107 185.871 449.89Z" fill="#0A0A0A"/>
<path fill-rule="evenodd" clip-rule="evenodd" d="M610.913 313.107H529.345L485.822 550H528.127L539.695 487.225H576.218C588.593 487.225 600.565 485.685 612.13 482.6C623.698 479.513 634.55 472.245 644.698 460.792C653.018 451.76 659.507 441.63 664.175 430.398C669.045 419.163 672.193 407.712 673.61 396.035C677.263 370.482 673.715 350.33 662.957 335.572C652.202 320.817 634.855 313.325 610.913 313.107ZM564.895 351.102L546.695 449.89C547.912 450.107 549.13 450.22 550.348 450.22H554.607C574.087 450.44 590.32 448.35 603.305 443.942C616.287 439.317 625.017 423.24 629.48 395.705C633.132 372.578 629.48 359.25 618.522 355.727C607.767 352.205 594.277 350.552 578.042 350.772C575.607 350.99 573.277 351.102 571.042 351.102H564.895Z" fill="#0A0A0A"/>
</svg>
