<svg width="484" height="200" viewBox="0 0 484 200" fill="none" xmlns="http://www.w3.org/2000/svg">
<g clip-path="url(#clip0_1_2)">
<path d="M44.7501 18.2305C45.6116 16.9569 46.8102 16.3764 48.3459 16.4887C49.8816 16.6011 51.3049 17.2566 52.6159 18.4552C53.9643 19.6912 55.3876 21.433 56.8859 23.6803C58.3841 25.9652 59.6951 30.5161 60.8188 37.3331C61.9425 44.1876 62.1298 50.7425 61.3807 56.9977C60.5941 63.2529 59.9573 67.2232 59.4704 68.9088C59.0209 70.5943 59.7513 72.3922 61.6616 74.3025C63.5344 76.1753 64.4146 77.917 64.3022 79.5276C64.1899 81.1382 63.4407 82.4679 62.0549 83.5167C60.669 84.528 59.3206 84.8464 58.0096 84.4718C56.6986 84.1347 55.1816 86.1574 53.4586 90.5397C51.7357 94.9221 49.6381 99.2109 47.166 103.406C44.6564 107.639 42.3903 111.178 40.3677 114.025C38.3076 116.871 35.4984 119.849 31.94 122.958C28.4191 126.067 25.6661 127.846 23.6809 128.296C21.6957 128.708 19.9728 128.689 18.512 128.239C17.0512 127.753 15.7027 126.516 14.4667 124.531C13.2306 122.546 12.5564 118.857 12.4441 113.463C12.3317 108.032 13.9236 102.694 17.2197 97.4504C20.4784 92.1691 26.3965 87.5432 34.974 83.5729C43.514 79.5651 46.4169 78.1417 43.6826 79.3029C40.9483 80.4266 30.6478 81.8874 12.7812 83.6853C-5.04802 85.4457 -4.22398 85.015 15.2533 82.393C34.768 79.7711 45.4992 77.4675 47.4469 75.4823C49.3572 73.4972 50.7431 70.2572 51.6046 65.7624C52.4286 61.2677 52.8781 57.0913 52.953 53.2333C53.0279 49.3379 52.7844 45.4424 52.2226 41.547C51.6233 37.6141 49.8816 33.6624 46.9974 29.6921C44.1133 25.6842 42.8023 23.0623 43.0645 21.8262C43.3642 20.5902 43.926 19.3916 44.7501 18.2305ZM37.3899 93.4613C35.8542 94.1356 33.5881 95.9335 30.5916 98.855C27.5951 101.777 25.535 104.511 24.4113 107.058C23.3251 109.568 23.0442 111.571 23.5686 113.07C24.0555 114.568 26.2654 113.313 30.1983 109.305C34.0938 105.26 36.6595 101.945 37.8956 99.3607C39.0942 96.7762 39.7122 94.9783 39.7497 93.967C39.7871 92.9931 39.0005 92.8246 37.3899 93.4613ZM101.272 80.4266C102.957 79.9771 104.792 79.9022 106.778 80.2018C108.8 80.5015 110.411 81.1195 111.609 82.0559C112.808 83.0298 113.969 84.9026 115.093 87.6744C116.179 90.4461 115.673 92.3189 113.576 93.2928C111.516 94.2292 109.643 93.8921 107.957 92.2815C106.272 90.6709 104.512 90.3337 102.676 91.2702C100.841 92.244 99.0242 93.2179 97.2263 94.1917C95.4284 95.2031 93.2185 96.7575 90.5965 98.855C87.9746 100.99 85.2777 103.706 82.506 107.002C79.6968 110.298 78.1611 112.395 77.8989 113.294C77.5992 114.193 78.3109 114.062 80.0339 112.901C81.7569 111.74 84.3788 109.961 87.8997 107.564C91.458 105.204 95.934 102.788 101.328 100.316C106.684 97.8063 110.074 96.8324 111.497 97.3942C112.92 97.9186 114.157 98.9112 115.205 100.372C116.217 101.87 116.797 103.144 116.947 104.193C117.097 105.241 116.928 106.084 116.441 106.721C115.954 107.32 115.411 108.725 114.812 110.935C114.175 113.145 114.231 115.261 114.981 117.284C115.692 119.344 116.629 120.748 117.79 121.497C118.913 122.284 120.468 122.509 122.453 122.172C124.401 121.834 126.817 120.336 129.701 117.677C132.622 115.017 132.51 115.635 129.364 119.531C126.217 123.464 123.727 125.955 121.891 127.003C120.056 128.052 118.633 128.558 117.621 128.52C116.572 128.483 115.224 128.165 113.576 127.565C111.928 126.929 110.373 125.955 108.913 124.644C107.452 123.333 106.309 121.722 105.485 119.812C104.624 117.902 104.062 116.497 103.8 115.598C103.5 114.699 102.807 113.688 101.721 112.564C100.672 111.478 99.38 111.253 97.8443 111.89C96.3086 112.489 93.6305 114.175 89.8099 116.946C85.952 119.756 82.3562 122.04 79.0225 123.801C75.6889 125.599 72.7112 126.854 70.0892 127.565C67.4673 128.239 65.763 128.483 64.9764 128.296C64.2273 128.071 63.3846 127.247 62.4482 125.824C61.5492 124.4 61.0248 122.846 60.875 121.16C60.7252 119.475 60.9686 117.77 61.6054 116.047C62.2047 114.324 64.5457 110.878 68.6284 105.71C72.6737 100.578 76.5879 96.3642 80.371 93.068C84.1166 89.7719 88.1057 86.9627 92.3382 84.6404C96.6082 82.3556 99.586 80.951 101.272 80.4266ZM144.253 82.0559C145.788 81.3442 147.755 81.4941 150.152 82.5054C152.512 83.5167 153.017 85.427 151.669 88.2362C150.321 91.008 148.111 95.5963 145.039 102.001C141.968 108.406 141.649 110.167 144.084 107.283C146.556 104.361 149.534 101.402 153.017 98.4056C156.463 95.4091 158.954 93.4801 160.49 92.6186C162.026 91.7196 163.692 91.0641 165.49 90.6521C167.288 90.2026 169.33 90.315 171.614 90.9892C173.862 91.626 175.791 93.4613 177.401 96.4953C179.012 99.5293 179.874 104.548 179.986 111.553C180.098 118.52 181.821 121.928 185.155 121.778C188.488 121.628 191.728 120.411 194.875 118.126C198.021 115.804 200.362 113.463 201.898 111.103C203.433 108.706 204.089 108.069 203.864 109.193C203.64 110.279 202.797 111.89 201.336 114.025C199.875 116.122 196.766 119.4 192.009 123.857C187.252 128.352 183.132 130.637 179.649 130.712C176.165 130.787 173.637 129.382 172.064 126.498C170.491 123.651 169.479 119.1 169.03 112.845C168.543 106.59 167.719 103.406 166.558 103.294C165.359 103.181 162.793 104.361 158.861 106.833C154.928 109.268 151.313 112.47 148.017 116.441C144.721 120.374 142.024 123.707 139.926 126.442C137.829 129.213 135.956 130.88 134.308 131.442C132.622 132.041 131.237 131.611 130.15 130.15C129.102 128.689 128.746 126.891 129.083 124.756C129.42 122.621 130.057 119.362 130.993 114.98C131.93 110.598 133.278 105.972 135.038 101.102C136.799 96.2331 136.406 94.6412 133.858 96.3267C131.274 98.0123 128.146 100.559 124.476 103.968C120.768 107.376 122.079 105.766 128.409 99.136C134.739 92.5062 138.26 88.6482 138.971 87.562C139.645 86.4758 140.32 85.4644 140.994 84.528C141.631 83.6291 142.717 82.805 144.253 82.0559ZM208.134 82.0559C209.67 81.3442 211.618 81.4941 213.977 82.5054C216.375 83.5167 216.899 85.427 215.551 88.2362C214.202 91.008 211.992 95.5963 208.921 102.001C205.849 108.406 205.531 110.167 207.966 107.283C210.4 104.361 213.359 101.402 216.843 98.4056C220.326 95.4091 222.836 93.4801 224.372 92.6186C225.907 91.7196 227.574 91.0641 229.372 90.6521C231.17 90.2026 233.193 90.315 235.44 90.9892C237.725 91.626 239.672 93.4613 241.283 96.4953C242.894 99.5293 243.755 104.548 243.868 111.553C243.98 118.52 245.703 121.928 249.036 121.778C252.333 121.628 255.554 120.411 258.7 118.126C261.847 115.804 264.188 113.463 265.723 111.103C267.259 108.706 267.933 108.069 267.746 109.193C267.521 110.279 266.678 111.89 265.218 114.025C263.757 116.122 260.648 119.4 255.891 123.857C251.134 128.352 247.014 130.637 243.53 130.712C240.047 130.787 237.519 129.382 235.946 126.498C234.372 123.651 233.342 119.1 232.855 112.845C232.406 106.59 231.582 103.406 230.383 103.294C229.222 103.181 226.675 104.361 222.742 106.833C218.772 109.268 215.139 112.47 211.842 116.441C208.546 120.374 205.868 123.707 203.808 126.442C201.711 129.213 199.819 130.88 198.133 131.442C196.448 132.041 195.081 131.611 194.032 130.15C192.983 128.689 192.609 126.891 192.908 124.756C193.245 122.621 193.901 119.362 194.875 114.98C195.811 110.598 197.16 105.972 198.92 101.102C200.68 96.2331 200.268 94.6412 197.684 96.3267C195.137 98.0123 192.009 100.559 188.301 103.968C184.63 107.376 185.96 105.766 192.29 99.136C198.62 92.5062 202.123 88.6482 202.797 87.562C203.508 86.4758 204.183 85.4644 204.819 84.528C205.494 83.6291 206.599 82.805 208.134 82.0559ZM297.692 88.4609C299.078 87.0001 300.726 86.5132 302.636 87.0001C304.509 87.5245 305.858 88.3673 306.682 89.5284C307.468 90.6896 307.749 91.9069 307.524 93.1804C307.262 94.4165 307.206 96.7013 307.356 100.035C307.506 103.369 307.225 108.144 306.513 114.362C305.801 120.58 305.127 125.767 304.49 129.925C303.816 134.083 302.318 138.896 299.996 144.364C297.636 149.796 294.565 154.908 290.781 159.703C286.961 164.497 282.466 168.674 277.297 172.232C272.166 175.79 267.577 178.412 263.532 180.098C259.524 181.821 256.34 182.869 253.981 183.244C251.658 183.619 249.392 183.619 247.182 183.244C245.01 182.869 243.118 181.278 241.508 178.468C239.897 175.659 240.665 171.558 243.811 166.164C246.958 160.808 247.482 160.545 245.385 165.377C243.287 170.209 244.504 172.887 249.036 173.412C253.531 173.974 257.352 173.412 260.498 171.726C263.644 170.041 267.296 167.475 271.454 164.029C275.612 160.62 278.814 157.643 281.062 155.096C283.272 152.586 285.725 148.878 288.422 143.971C291.081 139.064 293.123 133.502 294.546 127.284C295.969 121.067 296.774 116.459 296.962 113.463C297.149 110.466 297.186 108.725 297.074 108.238C296.962 107.751 296.288 107.957 295.052 108.856C293.815 109.717 292.523 110.879 291.175 112.339C289.789 113.8 288.309 115.223 286.736 116.609C285.163 117.958 282.747 119.849 279.488 122.284C276.192 124.756 273.439 126.03 271.229 126.104C269.019 126.142 266.884 125.73 264.824 124.868C262.727 124.007 261.191 122.658 260.217 120.823C259.206 118.988 258.7 116.871 258.7 114.474C258.7 112.115 258.887 110.41 259.262 109.362C259.637 108.275 260.629 104.773 262.24 98.855C263.85 92.937 265.63 89.5472 267.577 88.6857C269.488 87.8616 271.023 87.4871 272.184 87.562C273.308 87.6369 274.188 88.2737 274.825 89.4723C275.499 90.6709 275.443 92.1504 274.657 93.9108C273.833 95.6713 272.802 98.6303 271.566 102.788C270.33 106.983 269.843 110.204 270.106 112.452C270.33 114.736 271.342 115.523 273.14 114.811C274.937 114.137 276.642 113.201 278.252 112.002C279.863 110.766 281.343 109.399 282.691 107.901C284.039 106.402 286.549 103.144 290.22 98.1246C293.89 93.143 296.381 89.9217 297.692 88.4609ZM346.853 18.2305C347.715 16.9569 348.914 16.3764 350.449 16.4887C351.985 16.6011 353.408 17.2566 354.719 18.4552C356.068 19.6912 357.491 21.433 358.989 23.6803C360.488 25.9652 361.799 30.5161 362.922 37.3331C364.046 44.1876 364.233 50.7425 363.484 56.9977C362.698 63.2529 362.061 67.2232 361.574 68.9088C361.124 70.5943 361.855 72.3922 363.765 74.3025C365.638 76.1753 366.518 77.917 366.406 79.5276C366.293 81.1382 365.544 82.4679 364.158 83.5167C362.772 84.528 361.424 84.8464 360.113 84.4718C358.802 84.1347 357.285 86.1574 355.562 90.5397C353.839 94.9221 351.742 99.2109 349.269 103.406C346.76 107.639 344.494 111.178 342.471 114.025C340.411 116.871 337.602 119.849 334.043 122.958C330.485 126.067 327.732 127.846 325.784 128.296C323.799 128.708 322.076 128.689 320.615 128.239C319.155 127.753 317.806 126.516 316.57 124.531C315.297 122.546 314.622 118.857 314.547 113.463C314.435 108.032 316.008 102.694 319.267 97.4504C322.563 92.1691 328.5 87.5432 337.077 83.5729C345.617 79.5651 348.52 78.1417 345.786 79.3029C343.052 80.4266 332.751 81.8874 314.885 83.6853C297.055 85.4457 297.879 85.015 317.357 82.393C336.871 79.7711 347.603 77.4675 349.55 75.4823C351.461 73.4972 352.847 70.2572 353.708 65.7624C354.532 61.2677 354.982 57.0913 355.056 53.2333C355.131 49.3379 354.888 45.4424 354.326 41.547C353.727 37.6141 351.985 33.6624 349.101 29.6921C346.217 25.6842 344.906 23.0623 345.168 21.8262C345.468 20.5902 346.029 19.3916 346.853 18.2305ZM339.493 93.4613C337.958 94.1356 335.692 95.9335 332.695 98.855C329.699 101.777 327.638 104.511 326.515 107.058C325.429 109.568 325.148 111.571 325.672 113.07C326.159 114.568 328.369 113.313 332.302 109.305C336.197 105.26 338.763 101.945 339.999 99.3607C341.198 96.7762 341.816 94.9783 341.853 93.967C341.891 92.9931 341.104 92.8246 339.493 93.4613ZM390.172 79.7524C395.078 79.4153 398.056 80.2393 399.105 82.2245C400.191 84.2471 400.697 86.8129 400.622 89.9217C400.547 93.0306 399.086 95.6713 396.24 97.8437C393.355 99.9787 389.572 102.114 384.89 104.249C383.579 104.773 382.399 105.035 381.351 105.035C380.302 105.073 379.422 105.054 378.71 104.979C378.036 104.867 377.493 104.754 377.081 104.642C376.669 104.53 376.425 104.586 376.35 104.811C375.039 106.908 374.365 109.024 374.328 111.159C374.29 113.294 374.983 115.242 376.406 117.003C377.83 118.8 379.422 119.849 381.182 120.149C382.943 120.449 384.778 120.392 386.688 119.98C388.561 119.568 392.063 118.314 397.195 116.216C402.326 114.081 405.903 112.077 407.926 110.204C409.911 108.331 411.821 106.534 413.657 104.811C415.492 103.05 415.754 103.05 414.443 104.811C413.132 106.534 411.503 108.65 409.555 111.159C407.608 113.632 405.192 116.104 402.307 118.576C399.423 121.01 397.064 122.883 395.228 124.194C393.393 125.505 390.958 126.704 387.924 127.79C384.89 128.839 381.913 129.157 378.991 128.745C376.069 128.371 373.878 127.696 372.417 126.722C370.957 125.786 369.608 124.662 368.372 123.351C367.099 122.04 366.069 120.486 365.282 118.688C364.458 116.89 364.027 114.437 363.99 111.328C363.952 108.219 364.683 104.829 366.181 101.159C367.679 97.5253 369.383 94.4914 371.294 92.0567C373.204 89.6595 375.788 87.2249 379.047 84.7528C382.306 82.3181 386.014 80.6513 390.172 79.7524ZM390.284 89.6408C389.76 89.1164 388.505 89.3786 386.52 90.4274C384.497 91.4387 383.036 92.5811 382.137 93.8546C381.201 95.1281 381.032 96.0645 381.632 96.6638C382.193 97.2631 383.43 97.0197 385.34 95.9335C387.25 94.8847 388.767 93.8359 389.891 92.7871C391.052 91.7009 391.183 90.6521 390.284 89.6408ZM452.817 84.1347C453.641 83.498 454.634 83.1983 455.795 83.2358C456.956 83.2732 457.986 83.704 458.885 84.528C459.747 85.3895 460.833 86.4757 462.144 87.7867C463.492 89.0977 465.328 89.9592 467.65 90.3712C470.01 90.7832 473.961 90.4461 479.505 89.3599C485.048 88.3111 485.011 88.5171 479.392 89.9779C473.774 91.4387 469.111 92.5998 465.403 93.4613C461.694 94.3603 458.885 95.8024 456.975 97.7875C455.027 99.7353 452.817 102.245 450.345 105.316C447.836 108.388 444.97 112.339 441.749 117.171C438.528 122.003 436.411 125.299 435.4 127.06C434.389 128.82 433.078 130.281 431.467 131.442C429.857 132.603 428.096 132.753 426.186 131.891C424.276 131.03 422.89 129.719 422.028 127.959C421.129 126.198 420.605 124.138 420.455 121.778C420.305 119.456 419.575 116.385 418.264 112.564C416.953 108.781 415.361 105.129 413.488 101.608C411.615 98.0872 411.185 95.4465 412.196 93.6861C413.17 91.9256 414.687 90.9143 416.747 90.6521C418.807 90.3525 420.567 91.0829 422.028 92.8433C423.489 94.6038 424.875 97.3568 426.186 101.102C427.497 104.885 428.34 107.751 428.714 109.699C429.089 111.609 429.819 112.208 430.905 111.497C431.992 110.747 435.381 106.496 441.075 98.7427C446.806 90.9892 449.989 86.7754 450.626 86.1012C451.3 85.3895 452.031 84.734 452.817 84.1347Z" fill="white"/>
</g>
<defs>
<clipPath id="clip0_1_2">
<rect width="483.635" height="200" fill="white"/>
</clipPath>
</defs>
</svg>
